PathFileType	4	(X/Y/Z)	./resultDataOpenSim/trcMotMarkerGrf/sub06/qtm-13-02.trc
DataRate	CameraRate	NumFrames	NumMarkers	Units	OrigDataRate	OrigDataStartFrame	OrigNumFrames
250.000000	250.000000	11	24	m	250.000000	336	537
Frame#	Time	L.Toe.Tip			R.Toe.Tip			L.Ankle.Lat			R.Ankle.Lat			L.Ankle.Med			R.Ankle.Med			L.Heel			R.Heel			L.Knee.Lat			R.Knee.Lat			L.Knee.Med			R.Knee.Med			L.Thigh.Upper			R.Thigh.Upper			L.ASIS			R.ASIS			V.Sacral			L.Acromium			R.Acromium			C7			L.Elbow			R.Elbow			L.Wrist.Lat			R.Wrist.Lat
		X1	Y1	Z1	X2	Y2	Z2	X3	Y3	Z3	X4	Y4	Z4	X5	Y5	Z5	X6	Y6	Z6	X7	Y7	Z7	X8	Y8	Z8	X9	Y9	Z9	X10	Y10	Z10	X11	Y11	Z11	X12	Y12	Z12	X13	Y13	Z13	X14	Y14	Z14	X15	Y15	Z15	X16	Y16	Z16	X17	Y17	Z17	X18	Y18	Z18	X19	Y19	Z19	X20	Y20	Z20	X21	Y21	Z21	X22	Y22	Z22	X23	Y23	Z23	X24	Y24	Z24

336	1.34	0.61132917	0.12534059	-0.15759338	0.95365552	0.035307965	0.0043689575	0.59446982	0.25419888	-0.18396239	0.81754026	0.063023471	0.03396643	0.62001254	0.25970489	-0.10305994	0.8356537	0.081996628	-0.054178279	0.54327765	0.30493314	-0.12933487	0.76013703	0.042946141	-0.021744184	0.92207585	0.42256898	-0.23848746	0.92327755	0.43750128	0.064594304	0.93153303	0.41211677	-0.11096877	0.87819629	0.43153312	-0.055614204	0.78210808	0.79147541	-0.20288443	0.83459393	0.80399917	0.13274222	0.85751446	0.84667184	-0.17477969	0.90697871	0.86268998	0.066398205	0.70124964	0.92159065	-0.017927831	0.82461327	1.3418841	-0.23276802	0.84621819	1.3231858	0.12592605	0.75397876	1.3674284	-0.049642244	0.80900027	1.0166414	-0.29678559	0.76046491	1.0186736	0.21547426	1.0274509	0.89044898	-0.27092718	0.94418328	0.85348687	0.23269931
337	1.344	0.62764237	0.12512666	-0.1590164	0.95366951	0.035308595	0.0043447392	0.60831973	0.2535664	-0.18484364	0.81759948	0.063229004	0.03401249	0.63366548	0.25922309	-0.10374282	0.83567759	0.082273854	-0.054098928	0.55582748	0.30318583	-0.12996549	0.76024826	0.043229414	-0.021802239	0.93362769	0.42656118	-0.23843459	0.92376884	0.43775119	0.064442621	0.9432391	0.41628708	-0.11098605	0.87776321	0.4320099	-0.055843332	0.78959869	0.79393863	-0.2035591	0.83945617	0.80527816	0.13228501	0.86442149	0.84921145	-0.17451075	0.91232056	0.86453143	0.066552939	0.70664277	0.92343744	-0.01894576	0.8297765	1.3437221	-0.23297327	0.85194191	1.3254671	0.12562921	0.759462	1.369241	-0.049825179	0.81328648	1.0183697	-0.29827906	0.76908729	1.0198896	0.21554836	1.0278646	0.88926627	-0.27349918	0.95718842	0.85892389	0.23007861
338	1.348	0.64414633	0.12473177	-0.16050397	0.95368796	0.035308648	0.004318883	0.62214536	0.25269201	-0.18569242	0.81768329	0.063455279	0.034052082	0.64739881	0.25845928	-0.10438765	0.83572411	0.08256419	-0.054022864	0.56843802	0.30113715	-0.13061226	0.76031862	0.043557201	-0.02181396	0.94502819	0.43052904	-0.23833514	0.92423126	0.43800702	0.064296705	0.95470273	0.42045451	-0.11091498	0.87733324	0.4325848	-0.056189475	0.79714598	0.79644241	-0.20439551	0.84427702	0.80647093	0.13209719	0.87120446	0.85167666	-0.17433392	0.91764419	0.86629476	0.066651791	0.7120084	0.92524019	-0.019994727	0.83494018	1.3455434	-0.23316693	0.85764144	1.3277091	0.12533655	0.76492081	1.3710014	-0.050007586	0.81741103	1.0200983	-0.29973664	0.77767232	1.021133	0.21564505	1.0282122	0.8881313	-0.27609596	0.9700975	0.86445537	0.22743374
339	1.352	0.66087891	0.12417947	-0.16207378	0.95371071	0.035307744	0.0042931438	0.63588847	0.25157262	-0.1864855	0.81777974	0.063709999	0.034085189	0.66113598	0.25745597	-0.10502424	0.83580003	0.082859688	-0.0539538	0.58111312	0.29878672	-0.13127473	0.76036272	0.043919981	-0.021783345	0.95623744	0.43445709	-0.23820382	0.92467799	0.43827532	0.064148383	0.96595524	0.42460085	-0.11074506	0.87719621	0.43312693	-0.056557298	0.80474861	0.79901159	-0.20543869	0.84927819	0.80764266	0.13197525	0.87801342	0.8541395	-0.17416564	0.92296435	0.86797513	0.066692391	0.71734622	0.92699444	-0.021075547	0.84009396	1.3473318	-0.23335101	0.86331764	1.3299045	0.12504612	0.77036337	1.372703	-0.050182713	0.82101647	1.021903	-0.30097535	0.78637527	1.0223971	0.21577017	1.0284984	0.88703657	-0.27871932	0.98290317	0.87006411	0.22476991
340	1.356	0.67778909	0.12347701	-0.163695	0.95373998	0.035305544	0.004269407	0.64959729	0.2502089	-0.1872527	0.81787385	0.063992824	0.034112161	0.67489015	0.25625206	-0.10569012	0.83590704	0.083152686	-0.053896403	0.59385388	0.29614091	-0.1319579	0.76042203	0.044307882	-0.021759745	0.96729175	0.43833544	-0.23802062	0.92511988	0.43856027	0.063991245	0.97706434	0.42871934	-0.11049781	0.87741387	0.43355273	-0.056903303	0.81238402	0.80160671	-0.20660883	0.85447845	0.80880274	0.13166948	0.88509399	0.85667457	-0.17387941	0.92831219	0.86957106	0.066670212	0.72266638	0.92869723	-0.022170794	0.84523186	1.3490724	-0.23352712	0.86897178	1.3320439	0.1247522	0.77580908	1.3743443	-0.050345568	0.8239609	1.0238197	-0.30191159	0.7952057	1.0236632	0.21592101	1.02873	0.88597428	-0.28136319	0.99554561	0.87573824	0.22211143
341	1.36	0.69476015	0.12261644	-0.16530081	0.95378018	0.03530267	0.0042484609	0.66338274	0.24861295	-0.18803955	0.81796476	0.064296903	0.034132331	0.68869302	0.25485931	-0.10639708	0.83604001	0.083442359	-0.053853894	0.60666605	0.29321242	-0.13266964	0.7604781	0.044713793	-0.021755944	0.97829582	0.4421587	-0.23774453	0.92556433	0.43885814	0.063823499	0.9880101	0.43280047	-0.11020197	0.87783887	0.43387543	-0.057250669	0.82001196	0.80417222	-0.20777479	0.85968224	0.80990413	0.1311523	0.89253865	0.85926708	-0.17342704	0.93370994	0.87108441	0.066588988	0.72800502	0.93034899	-0.023222925	0.85035808	1.350757	-0.23369761	0.87460635	1.3341199	0.12445162	0.78126026	1.3759283	-0.050496456	0.82631594	1.0258425	-0.30256199	0.80409684	1.0249108	0.2160833	1.0289153	0.88494146	-0.28401985	1.0079579	0.88146308	0.21948018
342	1.364	0.71169049	0.1215916	-0.16683504	0.95383559	0.035300562	0.0042307523	0.67730187	0.24680266	-0.18885105	0.81807095	0.064618317	0.034143238	0.70250852	0.25327765	-0.10712433	0.83619337	0.08374227	-0.053825619	0.61955927	0.29001288	-0.13341204	0.76046244	0.045127144	-0.021741459	0.98930038	0.44592317	-0.23736735	0.92601812	0.43916145	0.063647759	0.99874909	0.43682691	-0.10986966	0.8783096	0.434169	-0.05763109	0.8275761	0.80668003	-0.20885647	0.86474024	0.81091063	0.1305968	0.90011547	0.86180568	-0.17292265	0.93911742	0.87251151	0.066473189	0.73342635	0.93195317	-0.024139998	0.8554766	1.3523836	-0.23386453	0.88022509	1.3361275	0.12414545	0.78670036	1.3774551	-0.05064034	0.82825951	1.0279449	-0.30299342	0.81299694	1.0261215	0.2162453	1.0290617	0.8839371	-0.28668494	1.0201664	0.88721546	0.21686707
343	1.368	0.7285865	0.12043173	-0.1682979	0.95390852	0.035299311	0.0042176088	0.69133911	0.24479457	-0.1896659	0.81821337	0.064960148	0.034138274	0.71632863	0.2515068	-0.10786108	0.83637156	0.084078355	-0.053810001	0.63254204	0.28654623	-0.13417798	0.76037364	0.045541746	-0.021711466	1.0002276	0.44962544	-0.23693835	0.92648772	0.43946868	0.063466871	1.0093219	0.44079201	-0.10948699	0.87877418	0.43450918	-0.058060558	0.8350178	0.80912709	-0.20986542	0.86963192	0.81181846	0.13018959	0.90740037	0.86416818	-0.17257825	0.94444622	0.87384052	0.066359385	0.73898524	0.9335106	-0.024870339	0.86058479	1.3539518	-0.23402812	0.88583304	1.3380596	0.12383436	0.7921194	1.3789176	-0.050778881	0.82998979	1.0300962	-0.30328219	0.82190633	1.0272845	0.21640517	1.0291732	0.88295542	-0.28935025	1.0322754	0.89296527	0.21423979
344	1.372	0.74552419	0.11919472	-0.16972635	0.95399882	0.035295381	0.0042112379	0.70546049	0.24260546	-0.19047256	0.81839512	0.065333469	0.034108586	0.73032351	0.2495401	-0.10864798	0.83659569	0.084468975	-0.053812294	0.64562046	0.28280991	-0.13495581	0.76034812	0.04598361	-0.021715744	1.0109948	0.45325879	-0.23650092	0.92697638	0.43978833	0.063279957	1.0197962	0.44470438	-0.10903997	0.87925081	0.43493936	-0.058542721	0.84232235	0.81152693	-0.21085283	0.87438896	0.81263978	0.12995283	0.91419138	0.86632734	-0.17249698	0.94966619	0.87506375	0.06626329	0.74468206	0.93501371	-0.02549134	0.86568267	1.3554606	-0.23418833	0.89143346	1.3399088	0.12351696	0.79752911	1.3803084	-0.050904786	0.83169313	1.0322686	-0.30349883	0.83085437	1.0284016	0.21657293	1.0292576	0.88199452	-0.29199959	1.0443441	0.89868181	0.21157098
345	1.376	0.76251615	0.11789629	-0.17113651	0.95410306	0.035282706	0.0042140076	0.71965085	0.24024945	-0.19127342	0.81859879	0.065755174	0.034048883	0.74469984	0.24737302	-0.10953448	0.83690054	0.084901502	-0.053850304	0.65880026	0.27880649	-0.1357438	0.76054508	0.04650623	-0.021811577	1.0216327	0.45681071	-0.23603584	0.92748647	0.44013584	0.063082857	1.0301065	0.44855964	-0.10854346	0.87974498	0.43547419	-0.059070996	0.84958488	0.81390232	-0.21179491	0.87906951	0.81341386	0.12970908	0.92070373	0.86836286	-0.17257526	0.95483475	0.87618408	0.066171332	0.75048008	0.93644808	-0.026172896	0.87077906	1.3569082	-0.23434733	0.89702493	1.3416731	0.12319233	0.80294676	1.381628	-0.051010025	0.83353539	1.0344373	-0.30370482	0.83985027	1.0294863	0.21676514	1.0293363	0.88106802	-0.29461802	1.0563487	0.90435533	0.20884488
346	1.38	0.77954044	0.11649426	-0.17252617	0.95421516	0.035259026	0.004227951	0.73391723	0.23773086	-0.19207565	0.81880739	0.066233298	0.033956388	0.75936441	0.24502098	-0.11048913	0.83731831	0.08533552	-0.05394961	0.6720847	0.27455556	-0.13655665	0.76095501	0.047125222	-0.022006915	1.0321873	0.46026959	-0.23550896	0.92803008	0.44052383	0.062871267	1.0400395	0.45232509	-0.1080314	0.88028273	0.43610055	-0.059627235	0.85697032	0.81625526	-0.21258351	0.88374549	0.81419919	0.12925425	0.92725111	0.87036107	-0.17265775	0.95999847	0.87720428	0.066075654	0.75634864	0.93779846	-0.027024514	0.87588089	1.3582936	-0.23450849	0.90260495	1.3433545	0.12286062	0.80837224	1.3828814	-0.05109938	0.83564634	1.0365818	-0.3039476	0.84887368	1.0305551	0.21698535	1.0294341	0.88019113	-0.29720138	1.0682413	0.910007	0.2060596
